<mxfile host="app.diagrams.net" modified="2023-07-25T14:28:44.576Z" agent="Mozilla/5.0 (X11; Linux x86_64) AppleWebKit/537.36 (KHTML, like Gecko) Chrome/115.0.0.0 Safari/537.36" etag="GeIproyIra6oTTHazv9T" version="21.6.5" type="device">
  <diagram name="Page-1" id="PxPx_drkSDnXfGhCuVSE">
    <mxGraphModel dx="2390" dy="1338" grid="0" gridSize="10" guides="1" tooltips="1" connect="1" arrows="1" fold="1" page="1" pageScale="1" pageWidth="2336" pageHeight="1654" background="none" math="0" shadow="0">
      <root>
        <mxCell id="0" />
        <mxCell id="1" parent="0" />
        <mxCell id="v7WM9_xpIUzTVtWNqfrQ-12" style="edgeStyle=orthogonalEdgeStyle;rounded=0;orthogonalLoop=1;jettySize=auto;html=1;fillColor=#d5e8d4;strokeColor=#82b366;flowAnimation=1;" parent="1" source="v7WM9_xpIUzTVtWNqfrQ-3" target="v7WM9_xpIUzTVtWNqfrQ-4" edge="1">
          <mxGeometry relative="1" as="geometry" />
        </mxCell>
        <mxCell id="v7WM9_xpIUzTVtWNqfrQ-3" value="&lt;b&gt;API GateWay&lt;/b&gt;" style="sketch=0;points=[[0,0,0],[0.25,0,0],[0.5,0,0],[0.75,0,0],[1,0,0],[0,1,0],[0.25,1,0],[0.5,1,0],[0.75,1,0],[1,1,0],[0,0.25,0],[0,0.5,0],[0,0.75,0],[1,0.25,0],[1,0.5,0],[1,0.75,0]];outlineConnect=0;fontColor=#232F3E;gradientColor=#F26DB4;gradientDirection=north;fillColor=#A833B5;strokeColor=#ffffff;dashed=0;verticalLabelPosition=bottom;verticalAlign=top;align=center;html=1;fontSize=12;fontStyle=0;aspect=fixed;shape=mxgraph.aws4.resourceIcon;resIcon=mxgraph.aws4.api_gateway;" parent="1" vertex="1">
          <mxGeometry x="562" y="500" width="50" height="50" as="geometry" />
        </mxCell>
        <mxCell id="v7WM9_xpIUzTVtWNqfrQ-22" style="edgeStyle=orthogonalEdgeStyle;rounded=0;orthogonalLoop=1;jettySize=auto;html=1;entryX=0.5;entryY=0;entryDx=0;entryDy=0;entryPerimeter=0;fillColor=#ffe6cc;strokeColor=#d79b00;flowAnimation=1;" parent="1" source="v7WM9_xpIUzTVtWNqfrQ-4" target="v7WM9_xpIUzTVtWNqfrQ-3" edge="1">
          <mxGeometry relative="1" as="geometry">
            <Array as="points">
              <mxPoint x="767" y="480" />
              <mxPoint x="587" y="480" />
            </Array>
          </mxGeometry>
        </mxCell>
        <mxCell id="v7WM9_xpIUzTVtWNqfrQ-4" value="&lt;b&gt;AMAZON SQS&lt;/b&gt;" style="sketch=0;points=[[0,0,0],[0.25,0,0],[0.5,0,0],[0.75,0,0],[1,0,0],[0,1,0],[0.25,1,0],[0.5,1,0],[0.75,1,0],[1,1,0],[0,0.25,0],[0,0.5,0],[0,0.75,0],[1,0.25,0],[1,0.5,0],[1,0.75,0]];outlineConnect=0;fontColor=#232F3E;gradientColor=#FF4F8B;gradientDirection=north;fillColor=#BC1356;strokeColor=#ffffff;dashed=0;verticalLabelPosition=bottom;verticalAlign=top;align=center;html=1;fontSize=12;fontStyle=0;aspect=fixed;shape=mxgraph.aws4.resourceIcon;resIcon=mxgraph.aws4.sqs;" parent="1" vertex="1">
          <mxGeometry x="742" y="500" width="50" height="50" as="geometry" />
        </mxCell>
        <mxCell id="v7WM9_xpIUzTVtWNqfrQ-17" style="edgeStyle=orthogonalEdgeStyle;rounded=0;orthogonalLoop=1;jettySize=auto;html=1;fillColor=#d5e8d4;strokeColor=#82b366;flowAnimation=1;" parent="1" source="v7WM9_xpIUzTVtWNqfrQ-5" target="v7WM9_xpIUzTVtWNqfrQ-6" edge="1">
          <mxGeometry relative="1" as="geometry">
            <mxPoint x="947" y="660" as="targetPoint" />
          </mxGeometry>
        </mxCell>
        <mxCell id="v8YGqq4dFVz6GY9GY3do-14" style="edgeStyle=orthogonalEdgeStyle;rounded=0;orthogonalLoop=1;jettySize=auto;html=1;entryX=1;entryY=0.5;entryDx=0;entryDy=0;entryPerimeter=0;fillColor=#e1d5e7;strokeColor=#9673a6;flowAnimation=1;" parent="1" source="v7WM9_xpIUzTVtWNqfrQ-5" target="v7WM9_xpIUzTVtWNqfrQ-4" edge="1">
          <mxGeometry relative="1" as="geometry" />
        </mxCell>
        <mxCell id="v7WM9_xpIUzTVtWNqfrQ-5" value="&lt;b&gt;Lambda&lt;/b&gt;" style="sketch=0;points=[[0,0,0],[0.25,0,0],[0.5,0,0],[0.75,0,0],[1,0,0],[0,1,0],[0.25,1,0],[0.5,1,0],[0.75,1,0],[1,1,0],[0,0.25,0],[0,0.5,0],[0,0.75,0],[1,0.25,0],[1,0.5,0],[1,0.75,0]];outlineConnect=0;fontColor=#232F3E;gradientColor=#F78E04;gradientDirection=north;fillColor=#D05C17;strokeColor=#ffffff;dashed=0;verticalLabelPosition=bottom;verticalAlign=top;align=center;html=1;fontSize=12;fontStyle=0;aspect=fixed;shape=mxgraph.aws4.resourceIcon;resIcon=mxgraph.aws4.lambda;" parent="1" vertex="1">
          <mxGeometry x="922" y="500" width="50" height="50" as="geometry" />
        </mxCell>
        <mxCell id="v7WM9_xpIUzTVtWNqfrQ-16" style="edgeStyle=orthogonalEdgeStyle;rounded=0;orthogonalLoop=1;jettySize=auto;html=1;fillColor=#d5e8d4;strokeColor=#82b366;flowAnimation=1;" parent="1" source="v7WM9_xpIUzTVtWNqfrQ-6" target="v7WM9_xpIUzTVtWNqfrQ-8" edge="1">
          <mxGeometry relative="1" as="geometry" />
        </mxCell>
        <mxCell id="v7WM9_xpIUzTVtWNqfrQ-6" value="&lt;b&gt;DynamoDB&lt;/b&gt;" style="sketch=0;points=[[0,0,0],[0.25,0,0],[0.5,0,0],[0.75,0,0],[1,0,0],[0,1,0],[0.25,1,0],[0.5,1,0],[0.75,1,0],[1,1,0],[0,0.25,0],[0,0.5,0],[0,0.75,0],[1,0.25,0],[1,0.5,0],[1,0.75,0]];outlineConnect=0;fontColor=#232F3E;gradientColor=#4D72F3;gradientDirection=north;fillColor=#3334B9;strokeColor=#ffffff;dashed=0;verticalLabelPosition=bottom;verticalAlign=top;align=center;html=1;fontSize=12;fontStyle=0;aspect=fixed;shape=mxgraph.aws4.resourceIcon;resIcon=mxgraph.aws4.dynamodb;" parent="1" vertex="1">
          <mxGeometry x="922" y="790" width="50" height="50" as="geometry" />
        </mxCell>
        <mxCell id="v7WM9_xpIUzTVtWNqfrQ-18" style="edgeStyle=orthogonalEdgeStyle;rounded=0;orthogonalLoop=1;jettySize=auto;html=1;entryX=0;entryY=0.5;entryDx=0;entryDy=0;entryPerimeter=0;fillColor=#d5e8d4;strokeColor=#82b366;flowAnimation=1;" parent="1" target="v7WM9_xpIUzTVtWNqfrQ-9" edge="1">
          <mxGeometry relative="1" as="geometry">
            <mxPoint x="762" y="839.9985914278583" as="sourcePoint" />
            <mxPoint x="917" y="977.54" as="targetPoint" />
            <Array as="points">
              <mxPoint x="762" y="965" />
            </Array>
          </mxGeometry>
        </mxCell>
        <mxCell id="v7WM9_xpIUzTVtWNqfrQ-8" value="&lt;b&gt;DynamoDB Stream&lt;/b&gt;" style="sketch=0;outlineConnect=0;fontColor=#232F3E;gradientColor=none;fillColor=#2E27AD;strokeColor=none;dashed=0;verticalLabelPosition=bottom;verticalAlign=top;align=center;html=1;fontSize=12;fontStyle=0;aspect=fixed;pointerEvents=1;shape=mxgraph.aws4.dynamodb_stream;" parent="1" vertex="1">
          <mxGeometry x="742" y="790" width="50" height="50" as="geometry" />
        </mxCell>
        <mxCell id="v7WM9_xpIUzTVtWNqfrQ-19" style="edgeStyle=orthogonalEdgeStyle;rounded=0;orthogonalLoop=1;jettySize=auto;html=1;entryX=0.5;entryY=1;entryDx=0;entryDy=0;entryPerimeter=0;fillColor=#d5e8d4;strokeColor=#82b366;flowAnimation=1;" parent="1" source="v7WM9_xpIUzTVtWNqfrQ-9" target="v7WM9_xpIUzTVtWNqfrQ-11" edge="1">
          <mxGeometry relative="1" as="geometry" />
        </mxCell>
        <mxCell id="v7WM9_xpIUzTVtWNqfrQ-9" value="&lt;b&gt;Lambda&lt;/b&gt;" style="sketch=0;points=[[0,0,0],[0.25,0,0],[0.5,0,0],[0.75,0,0],[1,0,0],[0,1,0],[0.25,1,0],[0.5,1,0],[0.75,1,0],[1,1,0],[0,0.25,0],[0,0.5,0],[0,0.75,0],[1,0.25,0],[1,0.5,0],[1,0.75,0]];outlineConnect=0;fontColor=#232F3E;gradientColor=#F78E04;gradientDirection=north;fillColor=#D05C17;strokeColor=#ffffff;dashed=0;verticalLabelPosition=bottom;verticalAlign=top;align=center;html=1;fontSize=12;fontStyle=0;aspect=fixed;shape=mxgraph.aws4.resourceIcon;resIcon=mxgraph.aws4.lambda;" parent="1" vertex="1">
          <mxGeometry x="922" y="940" width="50" height="50" as="geometry" />
        </mxCell>
        <mxCell id="v7WM9_xpIUzTVtWNqfrQ-34" style="edgeStyle=orthogonalEdgeStyle;rounded=0;orthogonalLoop=1;jettySize=auto;html=1;entryX=0;entryY=0.5;entryDx=0;entryDy=0;fillColor=#dae8fc;strokeColor=#6c8ebf;flowAnimation=1;" parent="1" source="v7WM9_xpIUzTVtWNqfrQ-11" target="v7WM9_xpIUzTVtWNqfrQ-33" edge="1">
          <mxGeometry relative="1" as="geometry">
            <Array as="points">
              <mxPoint x="1288" y="706" />
              <mxPoint x="1288" y="589" />
            </Array>
          </mxGeometry>
        </mxCell>
        <mxCell id="v7WM9_xpIUzTVtWNqfrQ-37" style="edgeStyle=orthogonalEdgeStyle;rounded=0;orthogonalLoop=1;jettySize=auto;html=1;entryX=0;entryY=0.5;entryDx=0;entryDy=0;fillColor=#dae8fc;strokeColor=#6c8ebf;flowAnimation=1;" parent="1" source="v7WM9_xpIUzTVtWNqfrQ-11" target="v7WM9_xpIUzTVtWNqfrQ-32" edge="1">
          <mxGeometry relative="1" as="geometry" />
        </mxCell>
        <mxCell id="v8YGqq4dFVz6GY9GY3do-19" style="edgeStyle=orthogonalEdgeStyle;rounded=0;orthogonalLoop=1;jettySize=auto;html=1;entryX=0;entryY=0.5;entryDx=0;entryDy=0;flowAnimation=1;fillColor=#dae8fc;strokeColor=#6c8ebf;" parent="1" source="v7WM9_xpIUzTVtWNqfrQ-11" target="v7WM9_xpIUzTVtWNqfrQ-31" edge="1">
          <mxGeometry relative="1" as="geometry">
            <Array as="points">
              <mxPoint x="1288" y="738" />
              <mxPoint x="1288" y="850" />
            </Array>
          </mxGeometry>
        </mxCell>
        <mxCell id="v7WM9_xpIUzTVtWNqfrQ-11" value="&lt;b&gt;AMAZON SNS&lt;/b&gt;" style="sketch=0;points=[[0,0,0],[0.25,0,0],[0.5,0,0],[0.75,0,0],[1,0,0],[0,1,0],[0.25,1,0],[0.5,1,0],[0.75,1,0],[1,1,0],[0,0.25,0],[0,0.5,0],[0,0.75,0],[1,0.25,0],[1,0.5,0],[1,0.75,0]];outlineConnect=0;fontColor=#232F3E;gradientColor=#FF4F8B;gradientDirection=north;fillColor=#BC1356;strokeColor=#ffffff;dashed=0;verticalLabelPosition=bottom;verticalAlign=top;align=center;html=1;fontSize=12;fontStyle=0;aspect=fixed;shape=mxgraph.aws4.resourceIcon;resIcon=mxgraph.aws4.sns;" parent="1" vertex="1">
          <mxGeometry x="1162" y="696.9300000000001" width="50" height="50" as="geometry" />
        </mxCell>
        <mxCell id="v7WM9_xpIUzTVtWNqfrQ-25" value="&lt;b&gt;Service1&lt;/b&gt;" style="text;html=1;align=center;verticalAlign=middle;resizable=0;points=[];autosize=1;strokeColor=none;fillColor=none;" parent="1" vertex="1">
          <mxGeometry x="1369" y="574" width="70" height="30" as="geometry" />
        </mxCell>
        <mxCell id="v7WM9_xpIUzTVtWNqfrQ-27" value="&lt;b&gt;Service2&lt;/b&gt;" style="text;html=1;align=center;verticalAlign=middle;resizable=0;points=[];autosize=1;strokeColor=none;fillColor=none;" parent="1" vertex="1">
          <mxGeometry x="1369" y="705.19" width="70" height="30" as="geometry" />
        </mxCell>
        <mxCell id="v7WM9_xpIUzTVtWNqfrQ-29" value="&lt;b&gt;Service3&lt;/b&gt;" style="text;html=1;align=center;verticalAlign=middle;resizable=0;points=[];autosize=1;strokeColor=none;fillColor=none;" parent="1" vertex="1">
          <mxGeometry x="1369" y="834.9999999999999" width="70" height="30" as="geometry" />
        </mxCell>
        <mxCell id="v7WM9_xpIUzTVtWNqfrQ-31" value="" style="rhombus;whiteSpace=wrap;html=1;fillColor=none;" parent="1" vertex="1">
          <mxGeometry x="1364" y="811" width="80" height="78" as="geometry" />
        </mxCell>
        <mxCell id="v7WM9_xpIUzTVtWNqfrQ-32" value="" style="rhombus;whiteSpace=wrap;html=1;fillColor=none;" parent="1" vertex="1">
          <mxGeometry x="1364" y="682.19" width="80" height="78" as="geometry" />
        </mxCell>
        <mxCell id="v7WM9_xpIUzTVtWNqfrQ-33" value="" style="rhombus;whiteSpace=wrap;html=1;fillColor=none;" parent="1" vertex="1">
          <mxGeometry x="1364" y="550" width="80" height="78" as="geometry" />
        </mxCell>
        <mxCell id="v7WM9_xpIUzTVtWNqfrQ-38" value="&lt;b&gt;1&lt;/b&gt;" style="text;html=1;align=center;verticalAlign=middle;resizable=0;points=[];autosize=1;strokeColor=none;fillColor=none;" parent="1" vertex="1">
          <mxGeometry x="665.5" y="537" width="25" height="26" as="geometry" />
        </mxCell>
        <mxCell id="v7WM9_xpIUzTVtWNqfrQ-39" value="SQS Response" style="text;html=1;align=center;verticalAlign=middle;resizable=0;points=[];autosize=1;strokeColor=none;fillColor=none;" parent="1" vertex="1">
          <mxGeometry x="627.5" y="449" width="101" height="26" as="geometry" />
        </mxCell>
        <mxCell id="v7WM9_xpIUzTVtWNqfrQ-40" value="&lt;b&gt;2&lt;/b&gt;" style="text;html=1;align=center;verticalAlign=middle;resizable=0;points=[];autosize=1;strokeColor=none;fillColor=none;" parent="1" vertex="1">
          <mxGeometry x="853" y="537" width="25" height="26" as="geometry" />
        </mxCell>
        <mxCell id="v7WM9_xpIUzTVtWNqfrQ-41" value="&lt;b&gt;3&lt;/b&gt;" style="text;html=1;align=center;verticalAlign=middle;resizable=0;points=[];autosize=1;strokeColor=none;fillColor=none;" parent="1" vertex="1">
          <mxGeometry x="897" y="662" width="25" height="26" as="geometry" />
        </mxCell>
        <mxCell id="v7WM9_xpIUzTVtWNqfrQ-43" value="&lt;b&gt;4&lt;/b&gt;" style="text;html=1;align=center;verticalAlign=middle;resizable=0;points=[];autosize=1;strokeColor=none;fillColor=none;" parent="1" vertex="1">
          <mxGeometry x="853" y="779" width="25" height="26" as="geometry" />
        </mxCell>
        <mxCell id="v7WM9_xpIUzTVtWNqfrQ-44" value="&lt;b&gt;5&lt;/b&gt;" style="text;html=1;align=center;verticalAlign=middle;resizable=0;points=[];autosize=1;strokeColor=none;fillColor=none;" parent="1" vertex="1">
          <mxGeometry x="754.5" y="976" width="25" height="26" as="geometry" />
        </mxCell>
        <mxCell id="v7WM9_xpIUzTVtWNqfrQ-45" value="&lt;b&gt;6&lt;/b&gt;" style="text;html=1;align=center;verticalAlign=middle;resizable=0;points=[];autosize=1;strokeColor=none;fillColor=none;" parent="1" vertex="1">
          <mxGeometry x="1174.5" y="976" width="25" height="26" as="geometry" />
        </mxCell>
        <mxCell id="v7WM9_xpIUzTVtWNqfrQ-46" value="&lt;b&gt;7&lt;/b&gt;" style="text;html=1;align=center;verticalAlign=middle;resizable=0;points=[];autosize=1;strokeColor=none;fillColor=none;" parent="1" vertex="1">
          <mxGeometry x="1234" y="662" width="25" height="26" as="geometry" />
        </mxCell>
        <mxCell id="v8YGqq4dFVz6GY9GY3do-2" style="edgeStyle=orthogonalEdgeStyle;rounded=0;orthogonalLoop=1;jettySize=auto;html=1;entryX=0;entryY=0.5;entryDx=0;entryDy=0;entryPerimeter=0;flowAnimation=1;" parent="1" source="v8YGqq4dFVz6GY9GY3do-1" target="v7WM9_xpIUzTVtWNqfrQ-3" edge="1">
          <mxGeometry relative="1" as="geometry">
            <Array as="points">
              <mxPoint x="347" y="525" />
            </Array>
          </mxGeometry>
        </mxCell>
        <mxCell id="v8YGqq4dFVz6GY9GY3do-3" style="edgeStyle=orthogonalEdgeStyle;rounded=0;orthogonalLoop=1;jettySize=auto;html=1;flowAnimation=1;" parent="1" source="v8YGqq4dFVz6GY9GY3do-1" edge="1">
          <mxGeometry relative="1" as="geometry">
            <mxPoint x="587" y="573" as="targetPoint" />
          </mxGeometry>
        </mxCell>
        <mxCell id="v8YGqq4dFVz6GY9GY3do-6" value="" style="whiteSpace=wrap;html=1;align=left;" parent="1" vertex="1">
          <mxGeometry x="1532" y="379.43" width="560" height="685" as="geometry" />
        </mxCell>
        <mxCell id="v8YGqq4dFVz6GY9GY3do-1" value="&lt;b&gt;Out Of Scope&lt;br&gt;Services&lt;/b&gt;" style="whiteSpace=wrap;html=1;" parent="1" vertex="1">
          <mxGeometry x="286" y="645.19" width="121" height="115" as="geometry" />
        </mxCell>
        <mxCell id="v8YGqq4dFVz6GY9GY3do-7" value="&lt;font style=&quot;font-size: 18px;&quot;&gt;&lt;b&gt;1. API Gateway:&lt;/b&gt;&amp;nbsp;serves as the entry point by providing&amp;nbsp;a RESTful&lt;br&gt;&amp;nbsp;API that enables client interaction. When clients send requests,&lt;br&gt;the API Gateway processes them and adds messages to the&lt;br&gt;&lt;b&gt;Amazon SQS&lt;/b&gt;&lt;br&gt;&lt;/font&gt;" style="text;html=1;align=left;verticalAlign=middle;resizable=0;points=[];autosize=1;strokeColor=none;fillColor=none;" parent="1" vertex="1">
          <mxGeometry x="1545" y="386.93" width="543" height="98" as="geometry" />
        </mxCell>
        <mxCell id="v8YGqq4dFVz6GY9GY3do-8" value="&lt;div style=&quot;&quot;&gt;&lt;span style=&quot;font-size: 18px;&quot;&gt;&lt;b&gt;3. DynamoDB:&amp;nbsp;&lt;/b&gt;Lambda function then inserts the processed data&amp;nbsp;&lt;/span&gt;&lt;/div&gt;&lt;div style=&quot;&quot;&gt;&lt;span style=&quot;font-size: 18px;&quot;&gt;into the&amp;nbsp;&lt;/span&gt;&lt;span style=&quot;background-color: initial; font-size: 18px;&quot;&gt;DynamoDB&lt;b&gt;&amp;nbsp;&lt;/b&gt;&lt;/span&gt;&lt;span style=&quot;background-color: initial; font-size: 18px;&quot;&gt;table&lt;/span&gt;&lt;/div&gt;" style="text;html=1;align=left;verticalAlign=middle;resizable=0;points=[];autosize=1;strokeColor=none;fillColor=none;" parent="1" vertex="1">
          <mxGeometry x="1545" y="604.1200000000001" width="540" height="55" as="geometry" />
        </mxCell>
        <mxCell id="v8YGqq4dFVz6GY9GY3do-9" value="&lt;div style=&quot;&quot;&gt;&lt;span style=&quot;font-size: 18px;&quot;&gt;&lt;b&gt;2. SQS + Lambda:&lt;/b&gt;&amp;nbsp;listens to the &lt;b&gt;Amazon SQS&lt;/b&gt; queue and&lt;/span&gt;&lt;/div&gt;&lt;div style=&quot;&quot;&gt;&lt;span style=&quot;font-size: 18px;&quot;&gt;retrieves messages as they become available. These&amp;nbsp;&lt;/span&gt;&lt;span style=&quot;font-size: 18px; background-color: initial;&quot;&gt;messages&lt;/span&gt;&lt;/div&gt;&lt;div style=&quot;&quot;&gt;&lt;span style=&quot;font-size: 18px; background-color: initial;&quot;&gt;contain data sent via the API Gateway which Lambda then&lt;/span&gt;&lt;/div&gt;&lt;div style=&quot;&quot;&gt;&lt;span style=&quot;font-size: 18px;&quot;&gt;processes them individually by executing required business&amp;nbsp;&lt;/span&gt;&lt;span style=&quot;font-size: 18px; background-color: initial;&quot;&gt;logic.&lt;/span&gt;&lt;/div&gt;" style="text;html=1;align=left;verticalAlign=middle;resizable=0;points=[];autosize=1;strokeColor=none;fillColor=none;" parent="1" vertex="1">
          <mxGeometry x="1545" y="496.43" width="538" height="98" as="geometry" />
        </mxCell>
        <mxCell id="v8YGqq4dFVz6GY9GY3do-10" value="&lt;div style=&quot;&quot;&gt;&lt;b style=&quot;font-size: 18px; background-color: initial;&quot;&gt;4. DynamoDB Stream:&lt;/b&gt;&lt;b style=&quot;font-size: 18px; background-color: initial;&quot;&gt;&amp;nbsp;&lt;/b&gt;&lt;span style=&quot;font-size: 18px; background-color: initial;&quot;&gt;The DynamoDB table is configured to&lt;/span&gt;&lt;/div&gt;&lt;div style=&quot;&quot;&gt;&lt;span style=&quot;font-size: 18px; background-color: initial;&quot;&gt;generate a stream of&amp;nbsp;&lt;/span&gt;&lt;span style=&quot;background-color: initial; font-size: 18px;&quot;&gt;events for any changes to its data.&lt;/span&gt;&lt;/div&gt;&lt;div style=&quot;&quot;&gt;&lt;span style=&quot;background-color: initial; font-size: 18px;&quot;&gt;Whenever data is inserted into&amp;nbsp;&lt;/span&gt;&lt;span style=&quot;background-color: initial; font-size: 18px;&quot;&gt;the table, a corresponding event is&lt;/span&gt;&lt;/div&gt;&lt;div style=&quot;&quot;&gt;&lt;span style=&quot;background-color: initial; font-size: 18px;&quot;&gt;generated and captured by the&amp;nbsp;&lt;/span&gt;&lt;span style=&quot;background-color: initial; font-size: 18px;&quot;&gt;DynamoDB Stream&lt;/span&gt;&lt;/div&gt;" style="text;html=1;align=left;verticalAlign=middle;resizable=0;points=[];autosize=1;strokeColor=none;fillColor=none;" parent="1" vertex="1">
          <mxGeometry x="1545" y="670.6200000000001" width="541" height="98" as="geometry" />
        </mxCell>
        <mxCell id="v8YGqq4dFVz6GY9GY3do-12" value="&lt;div style=&quot;&quot;&gt;&lt;span style=&quot;font-size: 18px; background-color: initial;&quot;&gt;&lt;b&gt;5.&lt;/b&gt;&amp;nbsp;&lt;b&gt;Lambda (Stream Processor):&lt;/b&gt; Another Lambda function,&lt;/span&gt;&lt;/div&gt;&lt;div style=&quot;&quot;&gt;&lt;span style=&quot;font-size: 18px; background-color: initial;&quot;&gt;commonly referred to as Stream&amp;nbsp;&lt;/span&gt;&lt;span style=&quot;background-color: initial; font-size: 18px;&quot;&gt;Processor&lt;/span&gt;&lt;span style=&quot;background-color: initial; font-size: 18px;&quot;&gt;, is connected to the&lt;/span&gt;&lt;/div&gt;&lt;div style=&quot;&quot;&gt;&lt;span style=&quot;background-color: initial; font-size: 18px;&quot;&gt;DynamoDB Stream. This function&amp;nbsp;&lt;/span&gt;&lt;span style=&quot;background-color: initial; font-size: 18px;&quot;&gt;is triggered whenever new&lt;/span&gt;&lt;/div&gt;&lt;div style=&quot;&quot;&gt;&lt;span style=&quot;background-color: initial; font-size: 18px;&quot;&gt;events occur in the stream. It fetches&amp;nbsp;&lt;/span&gt;&lt;span style=&quot;background-color: initial; font-size: 18px;&quot;&gt;and processes the data from&lt;/span&gt;&lt;/div&gt;&lt;div style=&quot;&quot;&gt;&lt;span style=&quot;background-color: initial; font-size: 18px;&quot;&gt;the DynamoDB Stream to enable&amp;nbsp;&lt;/span&gt;&lt;span style=&quot;background-color: initial; font-size: 18px;&quot;&gt;real-time reactions to changes&lt;/span&gt;&lt;/div&gt;&lt;div style=&quot;&quot;&gt;&lt;span style=&quot;background-color: initial; font-size: 18px;&quot;&gt;in the DynamoDB Table&lt;/span&gt;&lt;/div&gt;" style="text;html=1;align=left;verticalAlign=middle;resizable=0;points=[];autosize=1;strokeColor=none;fillColor=none;" parent="1" vertex="1">
          <mxGeometry x="1545" y="775.4300000000001" width="545" height="142" as="geometry" />
        </mxCell>
        <mxCell id="v8YGqq4dFVz6GY9GY3do-13" value="&lt;div style=&quot;&quot;&gt;&lt;span style=&quot;font-size: 18px; background-color: initial;&quot;&gt;&lt;b&gt;7. Subscribers:&lt;/b&gt;&amp;nbsp;The SNS will push the data to the subscribed&lt;/span&gt;&lt;/div&gt;&lt;div style=&quot;&quot;&gt;&lt;span style=&quot;font-size: 18px; background-color: initial;&quot;&gt;Services&lt;/span&gt;&lt;/div&gt;" style="text;html=1;align=left;verticalAlign=middle;resizable=0;points=[];autosize=1;strokeColor=none;fillColor=none;" parent="1" vertex="1">
          <mxGeometry x="1545" y="995.4300000000001" width="512" height="55" as="geometry" />
        </mxCell>
        <mxCell id="v8YGqq4dFVz6GY9GY3do-15" value="&lt;div style=&quot;&quot;&gt;&lt;span style=&quot;font-size: 18px; background-color: initial;&quot;&gt;&lt;b&gt;6. SNS Topic:&lt;/b&gt;&amp;nbsp;The Lambda stream processor publishes the results&lt;/span&gt;&lt;/div&gt;&lt;div style=&quot;&quot;&gt;&lt;span style=&quot;font-size: 18px; background-color: initial;&quot;&gt;to an SNS&amp;nbsp;&lt;/span&gt;&lt;span style=&quot;background-color: initial; font-size: 18px;&quot;&gt;Topic&amp;nbsp;&lt;/span&gt;&lt;/div&gt;" style="text;html=1;align=left;verticalAlign=middle;resizable=0;points=[];autosize=1;strokeColor=none;fillColor=none;" parent="1" vertex="1">
          <mxGeometry x="1545" y="928.4300000000001" width="552" height="55" as="geometry" />
        </mxCell>
      </root>
    </mxGraphModel>
  </diagram>
</mxfile>
